HIERARCHY
ROOT Hips
{
	OFFSET 0.000000 0.000000 0.000000
	CHANNELS 6 Xposition Yposition Zposition Xrotation Yrotation Zrotation
	JOINT LeftUpLeg_virtual
	{
		OFFSET 0.000000 0.000000 0.000000
		CHANNELS 3 Xrotation Yrotation Zrotation
		JOINT LeftUpLeg
		{
			OFFSET 15.427100 -6.655098 0.678600
			CHANNELS 3 Xrotation Yrotation Zrotation
			JOINT LeftLeg
			{
				OFFSET 4.081073 -39.591068 13.024000
				CHANNELS 3 Xrotation Yrotation Zrotation
				JOINT LeftFoot
				{
					OFFSET -4.081074 -37.707932 -15.979700
					CHANNELS 3 Xrotation Yrotation Zrotation
					JOINT LeftToeBase
					{
						OFFSET 5.346399 -15.068900 20.645000
						CHANNELS 3 Xrotation Yrotation Zrotation
						JOINT LeftToe_End
						{
							OFFSET 2.754700 0.931300 11.300900
							CHANNELS 3 Xrotation Yrotation Zrotation
							End Site
							{
								OFFSET 0 0 0
							}
						}
					}
				}
			}
		}
	}
	JOINT RightUpLeg_virtual
	{
		OFFSET 0.000000 0.000000 0.000000
		CHANNELS 3 Xrotation Yrotation Zrotation
		JOINT RightUpLeg
		{
			OFFSET -15.569500 -6.655098 0.678600
			CHANNELS 3 Xrotation Yrotation Zrotation
			JOINT RightLeg
			{
				OFFSET -4.081825 -39.591045 13.023800
				CHANNELS 3 Xrotation Yrotation Zrotation
				JOINT RightFoot
				{
					OFFSET 4.081824 -37.707954 -15.979600
					CHANNELS 3 Xrotation Yrotation Zrotation
					JOINT RightToeBase
					{
						OFFSET -5.346400 -15.068900 20.645000
						CHANNELS 3 Xrotation Yrotation Zrotation
						JOINT RightToe_End
						{
							OFFSET -2.754700 0.931300 11.300900
							CHANNELS 3 Xrotation Yrotation Zrotation
							End Site
							{
								OFFSET 0 0 0
							}
						}
					}
				}
			}
		}
	}
	JOINT Spine_virtual
	{
		OFFSET 0.000000 0.000000 0.000000
		CHANNELS 3 Xrotation Yrotation Zrotation
		JOINT Spine
		{
			OFFSET -0.279200 12.230698 -2.892100
			CHANNELS 3 Xrotation Yrotation Zrotation
			JOINT Spine1
			{
				OFFSET -0.232667 10.192268 -1.242267
				CHANNELS 3 Xrotation Yrotation Zrotation
				JOINT Spine1_split
				{
					OFFSET -0.232667 10.192268 -1.242267
					CHANNELS 3 Xrotation Yrotation Zrotation
					JOINT Spine2
					{
						OFFSET -0.232667 10.192268 -1.242267
						CHANNELS 3 Xrotation Yrotation Zrotation
						JOINT Neck_virtual
						{
							OFFSET 0.000000 0.000000 0.000000
							CHANNELS 3 Xrotation Yrotation Zrotation
							JOINT Neck
							{
								OFFSET -0.418800 17.814194 8.416900
								CHANNELS 3 Xrotation Yrotation Zrotation
								JOINT Head
								{
									OFFSET 0.000000 7.031097 3.806800
									CHANNELS 3 Xrotation Yrotation Zrotation
									JOINT HeadTop_End
									{
										OFFSET 0.000000 24.646606 12.978600
										CHANNELS 3 Xrotation Yrotation Zrotation
										End Site
										{
											OFFSET 0 0 0
										}
									}
								}
							}
						}
						JOINT LeftShoulder_virtual
						{
							OFFSET 0.000000 0.000000 0.000000
							CHANNELS 3 Xrotation Yrotation Zrotation
							JOINT LeftShoulder
							{
								OFFSET 8.476499 7.247704 -3.868750
								CHANNELS 3 Xrotation Yrotation Zrotation
								JOINT LeftShoulder_split
								{
									OFFSET 8.476499 7.247704 -3.868750
									CHANNELS 3 Xrotation Yrotation Zrotation
									JOINT LeftArm
									{
										OFFSET 9.308998 -2.777710 0.208600
										CHANNELS 3 Xrotation Yrotation Zrotation
										JOINT LeftForeArm
										{
											OFFSET 29.972298 0.000000 0.000000
											CHANNELS 3 Xrotation Yrotation Zrotation
											JOINT LeftHand
											{
												OFFSET 26.026505 0.000000 0.000000
												CHANNELS 3 Xrotation Yrotation Zrotation
												End Site
												{
													OFFSET 0 0 0
												}
											}
										}
									}
								}
							}
						}
						JOINT RightShoulder_virtual
						{
							OFFSET 0.000000 0.000000 0.000000
							CHANNELS 3 Xrotation Yrotation Zrotation
							JOINT RightShoulder
							{
								OFFSET -7.570500 7.247704 -3.868750
								CHANNELS 3 Xrotation Yrotation Zrotation
								JOINT RightShoulder_split
								{
									OFFSET -7.570500 7.247704 -3.868750
									CHANNELS 3 Xrotation Yrotation Zrotation
									JOINT RightArm
									{
										OFFSET -9.308998 -2.777710 0.208500
										CHANNELS 3 Xrotation Yrotation Zrotation
										JOINT RightForeArm
										{
											OFFSET -29.972300 0.000000 0.000000
											CHANNELS 3 Xrotation Yrotation Zrotation
											JOINT RightHand
											{
												OFFSET -26.026505 0.000000 0.000000
												CHANNELS 3 Xrotation Yrotation Zrotation
												End Site
												{
													OFFSET 0 0 0
												}
											}
										}
									}
								}
							}
						}
					}
				}
			}
		}
	}
}
MOTION
Frames: 4
Frame Time: 0.03333333
1.179384 74.078453 2.674717 0.000000 0.000000 0.000000 -4.782007 -35.649493 -0.107207 -32.175713 9.909795 19.379344 50.631455 -0.552409 2.490373 -22.893978 -6.028097 -13.714440 -0.751625 0.674525 0.853813 0.000000 0.000000 0.000000 -6.630230 -35.698578 0.431815 -18.149121 -9.576361 -39.002795 47.465334 -4.067659 -14.002746 -17.841526 -3.741721 31.533658 -2.801783 0.799345 -0.449672 0.000000 0.000000 0.000000 -2.503463 -39.442276 0.505639 12.146771 8.690335 -2.370556 1.539282 2.031901 -1.620402 1.757507 -3.886843 -0.634340 0.000000 0.000000 0.000000 0.642732 1.982284 -0.680191 -2.056459 8.763289 4.448258 9.692385 7.920459 -6.266632 0.000000 0.000000 0.000000 1.385791 1.425543 -1.991529 1.416973 -0.212306 -1.786004 -8.274082 0.899364 -5.547661 -45.715132 -5.879362 -48.850056 -168.573563 -76.764059 -165.626746 0.000000 0.000000 0.000000 1.799349 2.876879 0.352138 6.751647 10.700949 -10.664065 5.942495 14.392802 3.560666 -49.309752 31.270163 86.700434 176.807930 66.280292 -179.921786 0.000000 0.000000 0.000000 
1.379626 74.198242 1.818439 0.000000 0.000000 0.000000 -5.494657 -36.235059 0.469985 -31.093709 10.146418 18.066428 51.086670 -0.562386 2.362825 -22.404709 -5.411290 -13.014180 -1.101642 0.658133 0.706104 0.000000 0.000000 0.000000 -7.492382 -36.389721 0.732810 -18.778241 -9.475635 -39.960292 49.411330 -4.739737 -13.640912 -18.265951 -4.544990 29.708700 -0.063426 0.753705 -0.386759 0.000000 0.000000 0.000000 -4.446010 -41.069443 0.527951 10.849078 9.011365 -1.880394 1.427486 2.535944 -1.751299 0.076395 -2.615000 -0.446526 0.000000 0.000000 0.000000 1.082054 2.486712 -1.026288 -0.587954 8.281119 4.691628 8.371016 9.481274 -7.129178 0.000000 0.000000 0.000000 1.984025 2.000773 -1.872843 1.313923 0.097135 -1.868526 -5.973043 -0.022087 -7.458748 -44.298561 -6.517708 -52.557479 -169.049395 -79.268430 -166.327592 0.000000 0.000000 0.000000 2.292199 3.118337 -0.195634 6.602360 11.111638 -8.057065 3.983736 12.537675 3.367203 -47.682971 28.633413 81.774488 178.869499 66.788322 178.918718 0.000000 0.000000 0.000000 
1.594002 74.558578 1.019192 0.000000 0.000000 0.000000 -6.741496 -37.543993 1.630107 -28.613370 10.994744 15.660341 50.483612 -0.939328 1.952203 -22.268795 -5.240008 -13.513261 -1.141396 0.564525 0.697581 0.000000 0.000000 0.000000 -8.544164 -37.578676 1.777629 -18.789497 -7.466077 -41.344242 51.530516 -5.815048 -13.530935 -18.272255 -5.914163 28.228286 -0.147960 0.708399 -0.110172 0.000000 0.000000 0.000000 -6.947493 -42.483555 0.854237 9.170273 9.866926 -0.895312 1.645605 3.763424 -1.908201 -0.291134 -0.638567 0.176085 0.000000 0.000000 0.000000 1.715060 3.626958 -1.428102 1.055123 7.233917 4.050080 6.020694 11.064518 -9.475797 0.000000 0.000000 0.000000 2.636892 3.328766 -1.758447 0.996576 -0.108755 -2.490939 -4.631087 -2.413581 -7.948004 -40.134666 -8.941383 -58.716001 -169.074284 -83.282505 -166.747908 0.000000 0.000000 0.000000 3.221350 4.073627 -0.970797 6.391402 11.912560 -4.217252 3.365187 10.837060 3.389741 -46.637474 24.779231 73.755579 -179.355126 66.965470 178.016300 0.000000 0.000000 0.000000 
1.819127 75.111855 0.612377 0.000000 0.000000 0.000000 -8.004984 -40.224746 3.088476 -25.250716 12.097370 12.819977 48.923928 -1.394387 1.233308 -22.419025 -5.022392 -15.139432 -0.963423 0.425753 0.769727 0.000000 0.000000 0.000000 -9.392260 -39.809314 3.365798 -18.396034 -3.973473 -42.756650 52.924834 -6.965563 -13.640584 -18.055226 -7.391457 26.756291 -1.777376 0.625699 0.375608 0.000000 0.000000 0.000000 -9.449060 -44.503361 1.387226 7.725293 10.729991 0.623557 2.355210 5.240933 -1.920146 0.802542 0.834349 0.923186 0.000000 0.000000 0.000000 2.673088 4.976869 -1.572656 2.376020 5.990772 2.988059 2.706676 12.637610 -12.544718 0.000000 0.000000 0.000000 3.460443 4.894420 -1.479531 0.451670 -0.690147 -3.083545 -3.784686 -3.482983 -7.561195 -34.254761 -12.299146 -65.051541 -158.311450 -88.191273 -156.337252 0.000000 0.000000 0.000000 4.561789 5.263527 -1.668913 6.125963 13.161623 -0.050233 3.375306 9.661675 3.878182 -47.484332 23.190396 65.597553 -178.976037 67.956817 178.338056 0.000000 0.000000 0.000000 
